<svg width="129" height="35" viewBox="0 0 129 35" fill="none" xmlns="http://www.w3.org/2000/svg">
    <path
        d="M47.7406 21.9973C48.1668 21.0327 48.5588 20.148 48.9469 19.2613C49.9915 16.8697 51.0246 14.4742 52.0844 12.0883C52.3146 11.5708 52.4649 11.0685 52.3013 10.5129C52.1719 10.0772 52.3717 9.91929 52.7807 9.85079C54.5883 9.54637 54.594 9.55779 54.8052 11.3729C55.3018 15.6406 55.8041 19.9082 56.3368 24.1721C56.4205 24.8456 56.274 25.1006 55.5605 25.1386C54.027 25.2185 54.0194 25.2566 53.8481 23.7307C53.4885 20.6407 53.1423 17.5508 52.7865 14.4609C52.7579 14.2022 52.7065 13.9453 52.659 13.6428C52.4573 13.7569 52.4364 13.9396 52.3736 14.0918C50.9523 17.5584 49.5044 21.0156 48.1307 24.5031C47.8586 25.1957 47.4 25.1748 46.8578 25.2223C46.2775 25.2737 46.2299 24.8285 46.0967 24.4613C44.7928 21.02 43.4882 17.58 42.183 14.1413C42.1126 13.951 42.1107 13.7132 41.8024 13.5458C41.6122 15.0279 41.4314 16.4682 41.2488 17.9104C40.9672 20.1251 40.6856 22.3392 40.404 24.5526C40.3773 24.7657 40.4782 25.0796 40.1224 25.1234C39.6791 25.1672 39.2224 25.3346 38.7905 25.1443C38.5755 25.0492 38.7239 24.8038 38.7563 24.6287C39.5173 20.4962 40.2613 16.3655 41.0395 12.2367C41.1441 11.6792 41.1707 11.156 40.9158 10.6461C40.6285 10.0753 40.8644 9.88504 41.4295 9.84318C43.393 9.67385 42.9516 9.48929 43.5909 11.1427C44.8999 14.5523 46.1995 17.9663 47.4895 21.3847C47.5656 21.5521 47.6341 21.7272 47.7406 21.9973Z"
        fill="white" />
    <path
        d="M72.0526 18.2406C72.0526 16.2675 72.0526 14.2964 72.0526 12.3252C72.0526 11.3092 71.8947 11.138 70.8597 11.0961C70.5933 11.0847 70.4944 11.0333 70.4544 10.7612C70.4106 10.4549 70.5591 10.3978 70.7988 10.3598C73.864 9.88222 76.9406 9.54736 80.0019 10.2875C83.9557 11.2388 85.8564 14.0319 85.415 18.0884C85.0002 21.8937 82.4449 24.4737 78.5654 25.1092C76.5144 25.4459 74.4899 25.0901 72.4541 25.0445C71.9708 25.0331 72.0526 24.6639 72.0526 24.3709C72.0526 22.33 72.0526 20.2866 72.0526 18.2406ZM74.4367 17.6222V22.3275C74.4367 24.2168 74.4367 24.2168 76.3793 24.2187C79.3113 24.2187 81.4365 22.9344 82.3194 20.5428C83.0023 18.7477 83.0366 16.7705 82.4164 14.9528C81.7048 12.8428 80.1713 11.606 78.0079 11.1304C77.1156 10.9401 76.2118 10.9991 75.31 10.9724C74.6231 10.9534 74.4138 11.2578 74.4253 11.9238C74.4576 13.8207 74.4367 15.7215 74.4367 17.6222Z"
        fill="white" />
    <path
        d="M108.964 17.3051C108.846 20.1077 108.203 22.1208 106.439 23.6353C104.082 25.6502 99.7801 26.0193 97.1164 24.4363C94.9321 23.1387 94.0265 21.0914 93.8552 18.6693C93.665 15.901 94.1635 13.3533 96.4695 11.4887C99.1789 9.29876 104.19 9.33681 106.692 11.58C108.559 13.262 108.978 15.4881 108.964 17.3051ZM106.325 17.5563C106.308 16.3348 106.074 14.6738 105.144 13.1973C104.129 11.5877 102.664 10.8488 100.749 10.9807C99.059 11.0968 97.8299 11.9511 97.2077 13.4542C95.9425 16.5117 96.0909 19.5617 97.8794 22.3795C99.5917 25.0908 104.059 25.125 105.589 21.7821C106.133 20.5929 106.335 19.3391 106.325 17.5563Z"
        fill="white" />
    <path
        d="M113.139 13.5365C113.139 14.2557 113.124 14.9406 113.139 15.6294C113.211 18.5519 113.297 21.4744 113.366 24.3949C113.366 24.6347 113.533 25.0019 113.21 25.0875C112.738 25.2131 112.222 25.3501 111.743 25.1503C111.528 25.0628 111.628 24.7698 111.632 24.5567C111.718 20.7323 111.779 16.9061 111.918 13.0817C111.952 12.1475 111.798 11.3827 111.172 10.6749C110.681 10.1212 110.77 9.98042 111.514 9.88338C111.56 9.88338 111.609 9.88338 111.655 9.86816C112.846 9.59038 113.62 9.97661 114.37 11.0269C116.796 14.4288 119.365 17.7318 121.884 21.0672C122.005 21.2289 122.074 21.4477 122.321 21.5048C122.466 21.3925 122.392 21.2403 122.388 21.1243C122.295 17.6995 122.198 14.2747 122.099 10.8613C122.099 10.6235 121.933 10.2449 122.27 10.1821C122.748 10.0965 123.259 9.89099 123.731 10.1269C123.96 10.2411 123.832 10.5664 123.826 10.7929C123.743 14.3572 123.655 17.9208 123.564 21.4839C123.543 22.4105 123.564 23.339 123.524 24.2636C123.509 24.5624 123.796 25.0533 123.24 25.1446C122.73 25.2264 122.192 25.4262 121.758 24.8306C120.531 23.1392 119.256 21.4801 118 19.8114L113.499 13.8219C113.417 13.7134 113.366 13.5688 113.139 13.5365Z"
        fill="white" />
    <path
        d="M59.6425 18.4045C59.6425 16.479 59.6425 14.5554 59.6425 12.6299C59.6425 11.6786 59.4351 11.456 58.4838 11.416C58.1927 11.4046 58.0614 11.3475 58.0234 11.0355C57.9853 10.7235 58.1794 10.7025 58.4039 10.6683C59.5778 10.478 60.7499 10.2877 61.9428 10.2744C63.9159 10.2744 65.8908 10.2858 67.862 10.2459C68.4023 10.2345 68.5717 10.4057 68.5755 10.9194C68.5755 11.7262 68.6364 12.5329 68.6763 13.3396C68.6858 13.5451 68.6858 13.7106 68.4023 13.7201C68.1854 13.7316 68.0218 13.7087 67.9704 13.4709C67.9704 13.4481 67.9552 13.4252 67.9514 13.4024C67.4662 11.3266 66.7794 11.3285 64.9186 11.3095C64.1575 11.3095 63.3965 11.3209 62.6354 11.3095C62.2358 11.3 62.017 11.3932 62.0246 11.8593C62.0437 13.4043 62.0475 14.9493 62.0246 16.4923C62.0246 16.9623 62.2434 16.968 62.5954 16.9451C63.9273 16.8614 65.2591 16.8005 66.591 16.7244C67.0077 16.6997 67.3768 16.7073 67.3521 17.28C67.3254 17.7595 67.3654 18.2085 66.6062 18.1457C65.3048 18.0354 63.9939 18.0525 62.6887 17.9783C62.2111 17.9516 62.0208 18.0487 62.0342 18.5795C62.0722 20.075 62.0703 21.5743 62.0342 23.0698C62.0208 23.7072 62.2244 23.9831 62.8884 23.9583C63.8854 23.9203 64.8862 23.9165 65.8832 23.9298C67.1257 23.945 67.9571 23.3723 68.4347 22.2421C68.5355 22.0024 68.6687 21.776 68.7638 21.5324C68.859 21.2889 69.0264 21.3422 69.2262 21.365C69.483 21.4031 69.5325 21.5401 69.4868 21.7589C69.2966 22.6874 69.1063 23.6197 68.9027 24.5443C68.8678 24.7105 68.7723 24.8577 68.6348 24.9572C68.4972 25.0568 68.3275 25.1016 68.1588 25.0828C65.4951 25.0695 62.8314 25.0504 60.1676 25.0466C59.6825 25.0466 59.6501 24.7631 59.652 24.3921C59.6463 22.3962 59.6425 20.4004 59.6425 18.4045Z"
        fill="white" />
    <path
        d="M90.7563 17.5442C90.7563 19.7513 90.7354 21.9584 90.7697 24.1635C90.7811 24.8161 90.6117 25.0825 89.9192 25.1377C88.0774 25.2842 88.378 25.3375 88.3742 23.6803C88.3628 20.0024 88.3742 16.3246 88.3742 12.6449C88.3742 11.3511 88.3495 11.313 87.1052 11.1399C86.8464 11.1056 86.7988 10.9915 86.7779 10.7822C86.757 10.5729 86.814 10.4397 87.0633 10.4016C88.1128 10.2036 89.1732 10.0689 90.2388 9.99826C90.7868 9.96592 90.7621 10.3465 90.7621 10.7156L90.7563 17.5442Z"
        fill="white" />
    <path
        d="M25.4092 12.8823C25.4092 11.2194 25.3978 9.55649 25.4092 7.89357C25.4092 7.36654 25.2342 7.03357 24.7205 6.87946C21.6048 5.92887 18.3788 5.38715 15.1235 5.26791C11.5541 5.13853 8.08366 5.79495 4.67411 6.84711C3.5972 7.17818 3.32703 7.49402 3.32512 8.61468C3.32512 11.1814 3.3099 13.7519 3.32512 16.3128C3.34796 19.6919 4.42676 22.6848 6.63194 25.2667C8.72486 27.7135 11.341 29.5325 13.9305 31.3857C14.0708 31.4984 14.2453 31.5598 14.4252 31.5598C14.6051 31.5598 14.7797 31.4984 14.9199 31.3857C16.9405 30.0024 18.9364 28.5907 20.7116 26.8916C23.1736 24.5456 24.9621 21.8286 25.3369 18.3677C25.5367 16.5545 25.3465 14.7108 25.4092 12.8823ZM20.2987 22.9112C20.2987 21.9447 20.2987 20.9762 20.2987 20.0059C20.2987 19.2943 20.6241 18.674 20.9114 18.0519C21.0587 17.7815 21.1238 17.4739 21.0988 17.167C21.0738 16.8601 20.9597 16.5672 20.7706 16.3242C19.8307 14.9829 18.9402 13.6072 18.0307 12.2449C17.9706 12.1427 17.9025 12.0454 17.8272 11.9538C17.5912 11.7046 17.2887 11.6076 16.9938 11.7978C16.6989 11.9881 16.7921 12.3001 16.9405 12.5589C17.5113 13.5673 18.1069 14.57 18.6834 15.5784C18.8965 15.9589 19.0848 16.3395 19.2789 16.72C19.3442 16.8343 19.3861 16.9605 19.4021 17.0911C19.4181 17.2218 19.4079 17.3544 19.3721 17.4811C19.3093 17.6846 19.2542 17.9206 19.0087 17.9681C18.7633 18.0157 18.6396 17.7988 18.5445 17.6066C18.0771 16.7523 17.5285 15.945 16.9063 15.196C16.7008 14.9296 16.4953 14.5529 16.1281 14.7469C15.7609 14.941 15.9607 15.352 16.0976 15.6298C17.5418 18.5446 16.9272 21.6403 16.8587 24.6769C16.8587 24.6997 16.8587 24.7226 16.8587 24.7435C16.8092 25.4075 16.2175 25.2058 15.5383 25.28C15.5037 25.2797 15.4693 25.2759 15.4355 25.2686C15.2091 25.2153 15.2453 24.9889 15.2453 24.6636C15.2262 22.9512 15.23 21.2388 15.2453 19.5264C15.2453 18.9937 15.1596 18.5751 14.4842 18.5751C13.8088 18.5751 13.7231 18.9556 13.7231 19.5112C13.7384 21.2445 13.7041 22.9797 13.7441 24.713C13.7574 25.2838 13.5386 25.3276 13.08 25.2496C12.0602 25.0745 12.0583 25.086 12.0317 24.0623C11.9955 22.6372 11.9499 21.2084 11.9251 19.789C11.8951 18.7173 12.0849 17.6509 12.4826 16.6553C12.6519 16.2386 12.8251 15.8219 12.9678 15.3938C13.0401 15.1788 13.1409 14.8991 12.886 14.7469C12.631 14.5947 12.3761 14.7736 12.2162 14.9867C11.634 15.7649 11.0023 16.5088 10.5438 17.3764C10.4087 17.6333 10.3136 18.0747 9.93685 17.9472C9.49353 17.7817 9.51256 17.3155 9.59437 16.935C9.69207 16.6179 9.83155 16.3153 10.0092 16.035C10.6542 14.8934 11.3163 13.7747 11.9575 12.6388C12.1173 12.3572 12.338 12.0052 11.9327 11.7712C11.5693 11.5638 11.2421 11.7465 11.0214 12.0794C10.0206 13.5806 9.02738 15.0856 8.02849 16.5868C7.90172 16.7622 7.82867 16.9707 7.81819 17.1869C7.80772 17.4031 7.86029 17.6176 7.9695 17.8045C8.87327 19.4046 8.58977 21.1684 8.76101 22.9131C7.00105 21.7107 5.57026 18.2992 6.32561 15.1636C7.178 11.6342 10.2222 8.98189 13.7193 8.72313C17.5037 8.45105 20.9589 10.5858 22.2603 13.9973C23.4761 17.1823 22.6066 21.0847 20.2987 22.9112Z"
        fill="white" />
    <path
        d="M14.4976 11.7034C14.2109 11.7036 13.9353 11.5931 13.7282 11.3949C13.5212 11.1967 13.3987 10.9261 13.3864 10.6398C13.3813 10.4976 13.4047 10.3559 13.4551 10.2228C13.5055 10.0898 13.5819 9.96817 13.6799 9.86505C13.7778 9.76193 13.8954 9.67939 14.0257 9.62227C14.156 9.56516 14.2964 9.53461 14.4386 9.53243C14.726 9.52421 15.005 9.63006 15.2146 9.82684C15.4242 10.0236 15.5474 10.2954 15.5574 10.5827C15.5573 10.8695 15.4475 11.1455 15.2504 11.3539C15.0533 11.5623 14.784 11.6873 14.4976 11.7034Z"
        fill="white" />
</svg>